<svg xmlns="http://www.w3.org/2000/svg" xmlns:xlink="http://www.w3.org/1999/xlink" viewBox="0 0 91.52604748510547 91.52604748510547" height="91.52604748510547" width="91.52604748510547" data-background-color="#ffffff" preserveAspectRatio="xMidYMid meet" id="tight-bounds"><g><svg viewBox="0 0 91.52604748510547 91.52604748510547" height="91.52604748510547" width="91.52604748510547"><g><svg viewBox="0 0 91.52604748510547 91.52604748510547" height="91.52604748510547" width="91.52604748510547"><g id="textblocktransform"><svg viewBox="0 0 91.52604748510547 91.52604748510547" height="91.52604748510547" width="91.52604748510547" id="textblock"><g><svg viewBox="0 0 91.52604748510547 91.52604748510547" height="91.52604748510547" width="91.52604748510547"><g><svg viewBox="0 0 91.52604748510547 91.52604748510547" height="91.52604748510547" width="91.52604748510547"><g><svg/></g><g id="icon-0"><svg viewBox="0 0 91.52604748510547 91.52604748510547" height="91.52604748510547" width="91.52604748510547"><g><path d="M0 0" data-fill-palette-color="accent" fill="#754ffe" stroke="transparent"/><ellipse rx="45.305393505127206" ry="45.305393505127206" cx="45.76302374255273" cy="45.76302374255273" fill="#754ffe" stroke="transparent" stroke-width="0" fill-opacity="1" data-fill-palette-color="accent"/></g><g transform="matrix(1,0,0,1,16.811349510494082,16.77944245531636)"><svg viewBox="0 0 57.9033484641173 57.967162574472745" height="57.967162574472745" width="57.9033484641173"><g><svg xmlns="http://www.w3.org/2000/svg" xml:space="preserve" viewBox="4.5 4.5 90.74999237060547 90.85000610351562" x="0" y="0" height="57.967162574472745" width="57.9033484641173" class="icon-b-0" data-fill-palette-color="quaternary" id="b-0"><path d="M66 15C52 1 29.1 1 15 15 1 29.1 1 52 15 66c12.9 12.9 33.1 14 47.2 3.3l4.5 4.5-1.3 1.3 18.3 18.3c2.6 2.6 6.9 2.6 9.6 0 2.6-2.6 2.6-6.9 0-9.6L75.1 65.5l-1.3 1.3-4.5-4.5C80 48.2 78.9 27.9 66 15m-6.9 44.1c-10.2 10.2-26.8 10.2-37 0s-10.2-26.8 0-37 26.8-10.2 37 0 10.2 26.7 0 37M34.2 28.2c1.7 1.7 1.7 4.4 0 6-3.5 3.5-3.5 9.1 0 12.6 1.7 1.7 1.7 4.4 0 6-1.7 1.7-4.4 1.7-6 0-6.8-6.8-6.8-17.9 0-24.7 1.7-1.6 4.4-1.6 6 0.1" fill="#ffffff" data-fill-palette-color="quaternary"/></svg></g></svg></g></svg></g></svg></g></svg></g></svg></g></svg></g></svg></g><defs/></svg>