<?xml version="1.0" standalone="no"?>
<!DOCTYPE svg PUBLIC "-//W3C//DTD SVG 20010904//EN"
 "http://www.w3.org/TR/2001/REC-SVG-20010904/DTD/svg10.dtd">
<svg version="1.0" xmlns="http://www.w3.org/2000/svg"
 width="445.000000pt" height="353.000000pt" viewBox="0 0 445.000000 353.000000"
 preserveAspectRatio="xMidYMid meet">

<g transform="translate(0.000000,353.000000) scale(0.100000,-0.100000)"
fill="#000000" stroke="none">
<path d="M2268 3449 c-104 -15 -203 -64 -284 -141 l-40 -39 -85 21 c-100 24
-162 25 -246 5 -170 -40 -297 -145 -374 -309 -79 -170 -57 -367 58 -511 22
-27 185 -221 362 -429 177 -208 321 -384 319 -391 -3 -12 -733 -632 -756 -642
-7 -3 -26 6 -41 21 -22 21 -37 26 -79 26 -51 0 -53 -1 -179 -107 -366 -307
-503 -425 -517 -445 -9 -12 -16 -41 -16 -64 0 -38 9 -52 125 -190 69 -82 138
-157 153 -166 33 -22 62 -23 105 -4 47 20 629 512 650 549 23 42 22 88 -3 120
-11 14 -20 29 -20 34 0 14 751 638 768 638 9 0 140 -147 292 -327 407 -483
431 -509 488 -550 117 -81 276 -107 417 -69 104 29 176 71 250 145 109 111
162 251 151 396 -3 41 -8 85 -12 97 -4 16 1 27 22 45 15 13 42 36 60 51 44 38
108 134 133 202 45 120 45 256 0 378 l-22 57 31 58 c61 116 81 260 52 384 -34
141 -147 287 -278 356 -35 19 -65 39 -66 45 -2 7 -11 48 -21 92 -51 233 -240
427 -471 481 -91 21 -276 16 -355 -10 l-56 -19 -64 65 c-74 75 -159 121 -264
143 -77 16 -102 17 -187 4z m740 -425 c556 -114 850 -721 595 -1228 -47 -94
-96 -158 -181 -238 -90 -85 -195 -146 -320 -188 -84 -29 -114 -34 -229 -38
-113 -4 -147 -1 -230 18 -271 63 -496 256 -604 520 -86 212 -75 489 27 693
117 233 373 425 619 466 84 14 241 12 323 -5z"/>
<path d="M2426 2754 c-14 -14 -16 -82 -16 -597 0 -511 2 -585 16 -605 15 -21
21 -22 170 -22 88 0 164 4 175 10 18 10 19 23 19 185 0 95 3 180 6 189 5 14
29 16 158 16 210 0 200 -7 204 155 2 101 -1 135 -12 150 -13 18 -30 20 -183
25 l-168 5 -3 78 c-2 50 1 84 9 93 9 11 56 14 243 14 167 0 235 3 244 12 8 8
12 55 12 144 0 107 -3 136 -16 148 -13 14 -66 16 -429 16 -363 0 -416 -2 -429
-16z"/>
</g>
</svg>
